<?xml version="1.0" standalone="no"?>
<!DOCTYPE svg PUBLIC "-//W3C//DTD SVG 20010904//EN"
 "http://www.w3.org/TR/2001/REC-SVG-20010904/DTD/svg10.dtd">
<svg version="1.0" xmlns="http://www.w3.org/2000/svg"
 width="1320.000000pt" height="1000.000000pt" viewBox="0 0 1320.000000 1000.000000"
 preserveAspectRatio="xMidYMid meet">

<g transform="translate(0.000000,1000.000000) scale(0.100000,-0.100000)"
fill="#000000" stroke="none">
<path d="M3540 6105 c-145 -45 -221 -221 -156 -360 41 -89 142 -155 236 -155
52 0 131 31 172 68 151 136 97 390 -96 447 -60 18 -97 18 -156 0z"/>
<path d="M3447 5510 c-58 -10 -129 -44 -172 -81 -17 -15 -58 -62 -91 -103
l-59 -76 -110 0 c-133 0 -175 -11 -210 -52 -38 -44 -31 -110 14 -150 l31 -28
158 0 c195 0 232 13 308 109 l49 60 3 -180 c2 -152 -5 -253 -43 -650 -25 -258
-45 -492 -45 -520 0 -46 4 -55 39 -90 33 -33 45 -39 82 -39 53 0 102 28 123
69 11 20 28 159 56 437 22 224 42 410 45 412 3 3 5 3 5 1 0 -50 82 -823 89
-840 5 -14 24 -38 41 -52 25 -22 42 -27 82 -27 45 0 54 4 89 39 34 33 39 45
39 84 0 25 -20 256 -45 513 -43 454 -59 783 -36 758 13 -13 77 -190 91 -254
18 -76 62 -120 120 -120 32 0 48 6 70 29 45 45 47 71 12 196 -73 265 -189 462
-313 530 -53 29 -57 30 -214 32 -88 1 -181 -2 -208 -7z"/>
<path d="M9144 5436 c-33 -33 -39 -51 -34 -106 5 -65 75 -111 141 -91 104 31
123 168 29 216 -50 26 -98 19 -136 -19z"/>
<path d="M7850 5160 l0 -120 -95 0 -95 0 0 -70 0 -70 95 0 95 0 0 -265 c0
-316 5 -351 65 -410 51 -52 122 -71 222 -61 111 11 113 13 113 101 0 75 0 76
-22 64 -13 -7 -51 -13 -86 -13 -54 0 -66 4 -89 26 -36 37 -42 83 -43 335 l0
222 118 3 117 3 3 68 3 67 -121 0 -120 0 0 120 0 120 -80 0 -80 0 0 -120z"/>
<path d="M2505 5038 c-19 -29 -35 -58 -35 -65 0 -13 97 -83 115 -83 5 0 27 26
47 57 26 41 34 61 27 70 -12 14 -102 73 -112 73 -4 0 -22 -24 -42 -52z"/>
<path d="M6241 5045 c-61 -17 -162 -69 -185 -94 -14 -16 -11 -21 33 -65 l49
-48 52 36 c62 43 111 57 195 57 66 0 124 -21 157 -58 24 -26 48 -87 48 -121
l0 -29 -133 -6 c-224 -9 -353 -57 -422 -155 -25 -37 -30 -55 -33 -117 -5 -91
9 -136 60 -191 120 -131 391 -120 501 20 l32 40 5 -64 5 -65 70 -3 70 -3 -3
318 c-3 350 -8 384 -64 455 -17 22 -56 50 -96 70 -62 31 -75 33 -177 35 -74 2
-128 -2 -164 -12z m346 -515 c-8 -96 -45 -164 -111 -205 -45 -27 -57 -30 -130
-30 -125 1 -176 37 -184 128 -4 46 -1 57 22 84 49 59 158 89 325 92 l84 1 -6
-70z"/>
<path d="M7124 5040 c-130 -52 -200 -167 -174 -287 24 -106 86 -154 259 -198
154 -39 201 -69 201 -131 0 -47 -33 -81 -97 -100 -88 -25 -173 -5 -252 62
l-31 26 -33 -25 c-17 -14 -45 -37 -62 -51 l-30 -25 40 -41 c83 -87 214 -123
364 -102 99 14 166 47 219 107 52 59 69 129 52 208 -23 111 -82 156 -258 201
-115 29 -176 56 -192 85 -33 63 14 131 99 139 73 7 115 -4 166 -44 l46 -35 59
46 c33 26 60 49 60 54 0 17 -79 82 -125 103 -72 32 -238 37 -311 8z"/>
<path d="M8749 5028 c-42 -22 -75 -48 -96 -76 l-33 -44 0 66 0 66 -80 0 -80 0
0 -430 0 -430 80 0 80 0 0 248 c0 283 7 327 67 393 45 50 120 74 205 66 l58
-5 0 89 0 89 -68 0 c-58 0 -79 -5 -133 -32z"/>
<path d="M10710 5044 c-64 -17 -169 -73 -184 -97 -9 -14 -2 -25 35 -63 l47
-46 48 33 c26 18 66 39 88 46 52 18 162 18 206 -1 66 -27 110 -92 110 -160 l0
-33 -133 -6 c-318 -13 -457 -105 -457 -301 1 -105 52 -181 155 -228 41 -18 67
-23 146 -23 88 0 101 3 162 33 42 21 79 48 100 74 l32 40 5 -63 5 -64 70 -3
70 -3 -3 323 c-3 354 -7 383 -62 450 -18 21 -59 51 -98 70 -62 31 -75 33 -177
35 -75 2 -128 -2 -165 -13z m350 -492 c0 -105 -47 -194 -123 -234 -54 -29
-184 -32 -235 -5 -42 23 -72 72 -72 117 0 108 119 165 348 169 l82 1 0 -48z"/>
<path d="M4560 5033 c0 -5 63 -197 139 -428 l138 -420 89 0 88 0 101 312 c55
172 102 314 105 317 3 3 43 -102 89 -232 46 -130 97 -274 113 -319 l30 -83 78
0 c44 0 81 4 84 8 4 7 210 639 270 830 7 22 6 22 -78 22 l-85 0 -14 -47 c-8
-27 -50 -171 -93 -321 -67 -234 -80 -270 -89 -249 -5 13 -55 158 -110 321
l-100 296 -87 0 -87 0 -71 -222 c-122 -382 -134 -417 -137 -414 -3 3 -100 321
-172 564 l-22 72 -89 0 c-50 0 -90 -3 -90 -7z"/>
<path d="M9140 4610 l0 -431 83 3 82 3 3 428 2 427 -85 0 -85 0 0 -430z"/>
<path d="M9651 4841 l151 -199 -171 -225 c-94 -124 -171 -228 -171 -232 0 -3
44 -4 97 -3 l98 3 123 175 c68 96 127 176 130 177 4 1 63 -78 132 -177 l124
-180 104 0 c80 0 101 3 96 13 -4 6 -76 102 -159 212 -84 110 -158 209 -165
221 -11 19 0 38 129 213 77 105 141 194 141 196 0 3 -43 5 -94 5 l-95 0 -102
-150 c-56 -83 -105 -147 -109 -143 -4 4 -51 72 -104 151 l-97 142 -105 0 -105
0 152 -199z"/>
<path d="M2431 4811 l-55 -48 49 -56 c54 -63 48 -63 118 2 20 19 37 40 37 46
0 8 -87 106 -93 105 -1 0 -26 -22 -56 -49z"/>
<path d="M2707 4850 c-21 -4 -42 -11 -46 -16 -4 -5 -3 -38 3 -74 l11 -65 54 3
c97 6 99 9 88 91 l-10 71 -31 -1 c-17 -1 -48 -5 -69 -9z"/>
<path d="M2150 4540 c-11 -11 -20 -24 -20 -30 0 -18 40 -50 63 -50 22 0 23 -6
65 -340 23 -187 47 -349 54 -359 23 -37 53 -41 302 -41 242 0 243 0 265 24 31
33 35 53 77 404 37 297 39 312 59 312 48 0 75 50 45 80 -19 19 -35 20 -455 20
-422 0 -436 -1 -455 -20z m405 -280 l51 -50 49 50 c27 27 55 50 61 50 7 0 24
-14 39 -32 l26 -31 -52 -53 -53 -53 53 -56 53 -56 -28 -30 c-15 -16 -33 -29
-39 -29 -6 0 -33 23 -60 50 l-49 50 -51 -50 c-28 -27 -55 -50 -60 -50 -15 0
-55 43 -55 59 0 8 21 37 47 63 l47 48 -47 48 c-26 26 -47 54 -47 62 0 16 39
60 54 60 6 0 33 -23 61 -50z"/>
</g>
</svg>
