<?xml version="1.0" standalone="no"?>
<!DOCTYPE svg PUBLIC "-//W3C//DTD SVG 20010904//EN"
 "http://www.w3.org/TR/2001/REC-SVG-20010904/DTD/svg10.dtd">
<svg version="1.0" xmlns="http://www.w3.org/2000/svg"
 width="66.000000pt" height="66.000000pt" viewBox="0 0 66.000000 66.000000"
 preserveAspectRatio="xMidYMid meet">

<g transform="translate(0.000000,66.000000) scale(0.100000,-0.100000)"
fill="#000000" stroke="none">
<path d="M103 640 c-36 -21 -47 -39 -58 -90 -4 -19 -16 -41 -26 -48 -11 -7
-19 -24 -19 -37 0 -24 23 -55 41 -55 5 0 9 -10 9 -22 0 -12 18 -38 41 -60 43
-41 44 -58 1 -58 -30 -1 -50 -14 -75 -50 -21 -30 -25 -188 -5 -208 19 -19 332
-17 347 2 8 10 11 47 9 110 -3 85 -1 96 14 96 9 0 20 5 23 10 4 6 -7 10 -27
10 -18 0 -42 7 -52 15 -11 8 -32 15 -48 15 -15 0 -28 5 -28 10 0 7 43 10 123
8 118 -3 122 -4 125 -25 3 -20 -1 -23 -32 -23 -20 0 -36 -4 -36 -10 0 -6 45
-10 115 -10 70 0 115 4 115 10 0 6 -14 10 -31 10 -26 0 -30 3 -27 22 2 14 12
24 28 28 23 5 25 10 28 75 1 44 -4 94 -15 135 l-18 65 -83 3 c-64 2 -82 6 -82
17 0 17 -3 17 -80 15 -48 -1 -61 3 -94 29 -33 26 -47 31 -95 31 -38 0 -66 -6
-88 -20z m172 -31 c13 -13 27 -37 31 -53 7 -28 6 -29 -22 -20 -36 11 -149 12
-186 1 -24 -6 -28 -4 -28 13 0 58 50 92 128 87 40 -3 59 -10 77 -28z m165
-144 l0 -115 -65 0 c-36 0 -65 3 -65 6 0 13 25 50 42 62 24 17 23 64 -1 86
-10 9 -21 30 -23 47 l-5 29 59 0 58 0 0 -115z m40 37 c0 -26 5 -53 12 -60 7
-7 40 -12 80 -12 54 0 68 -3 68 -15 0 -8 -4 -15 -9 -15 -5 0 -17 -7 -25 -16
-18 -18 -5 -54 19 -54 8 0 15 -5 15 -11 0 -7 -11 -9 -32 -4 -42 8 -74 8 -115
0 l-33 -7 0 121 c0 74 4 121 10 121 6 0 10 -22 10 -48z m139 4 c6 -25 11 -47
11 -50 0 -3 -27 -6 -60 -6 l-60 0 0 50 0 50 49 0 49 0 11 -44z m-363 13 c38
-10 43 -14 32 -25 -9 -9 -25 -10 -58 -4 -25 5 -63 5 -85 1 -67 -12 -93 10 -32
28 45 13 91 13 143 0z m-216 -56 c0 -19 -3 -24 -10 -17 -6 6 -8 18 -4 27 9 24
14 21 14 -10z m310 -3 c0 -10 -4 -22 -10 -25 -6 -4 -10 7 -10 25 0 18 4 29 10
25 6 -3 10 -15 10 -25z m-43 -39 c-17 -149 -237 -145 -237 5 l0 41 121 0 121
-1 -5 -45z m333 -61 c0 -5 -4 -10 -10 -10 -5 0 -10 5 -10 10 0 6 5 10 10 10 6
0 10 -4 10 -10z m-200 -40 c0 -6 -35 -10 -86 -10 -54 0 -83 4 -79 10 3 6 42
10 86 10 46 0 79 -4 79 -10z m124 -16 c9 -3 16 -16 16 -29 0 -25 -21 -38 -45
-29 -18 7 -20 50 -2 57 6 3 13 6 14 6 1 1 8 -2 17 -5z m-344 -54 c0 -39 -1
-40 -35 -40 -33 0 -35 2 -35 33 0 41 5 47 42 47 26 0 28 -3 28 -40z m-88 -27
c3 -26 7 -28 56 -31 l52 -3 0 31 c0 23 4 31 16 28 13 -2 16 -21 16 -113 l0
-110 -86 -3 -86 -3 0 116 c0 93 3 115 14 115 9 0 16 -12 18 -27z m-52 -94 l0
-110 -27 3 c-28 3 -28 4 -31 84 -2 69 0 84 18 107 12 15 26 27 31 27 5 0 9
-49 9 -111z m255 87 c12 -18 15 -45 13 -107 -3 -78 -4 -84 -25 -87 -23 -3 -23
-2 -23 107 0 114 7 131 35 87z"/>
<path d="M512 398 c5 -15 28 -18 29 -3 0 6 -7 12 -17 13 -10 3 -15 -1 -12 -10z"/>
<path d="M532 519 c3 -8 19 -22 36 -32 26 -15 32 -16 32 -5 0 13 -16 24 -64
46 -5 3 -6 -2 -4 -9z"/>
<path d="M145 360 c21 -23 53 -26 81 -6 26 20 13 30 -20 15 -20 -10 -29 -10
-38 -1 -7 7 -19 12 -27 12 -11 0 -10 -4 4 -20z"/>
</g>
</svg>
