<?xml version="1.0" encoding="UTF-8"?>
<svg version="1.1" xmlns="http://www.w3.org/2000/svg" width="100" height="100">
<path d="M0 0 C4.52607264 0.92368829 6.94363896 1.74430556 10.125 5.125 C13.51676294 8.32404913 16.03945402 8.31659758 20.625 8.1875 C22.25308594 8.05408203 22.25308594 8.05408203 23.9140625 7.91796875 C27.53038228 8.01409877 29.14696404 8.82745848 32 11 C35.48064534 16.46958554 36.54988944 21.882138 35.4375 28.25 C33.05686257 37.5662278 27.60245561 45.18267157 21 52 C17.15636367 49.83795456 13.67594949 47.34646874 10.1875 44.6640625 C8.68927406 43.52434062 7.16669277 42.41613671 5.625 41.3359375 C0.52086613 37.65894633 -3.42916784 34.28332864 -5 28 C-5.39430967 23.06693429 -4.51908191 19.84940675 -1.9375 15.625 C1.63919471 12.42880473 4.44258444 11.39039797 9 10 C6.85233207 7.69324556 5.00604076 6.00343225 2.25 4.4375 C1.5075 3.963125 0.765 3.48875 0 3 C0 2.01 0 1.02 0 0 Z M16 13 C18.30622724 19.00455215 18.30622724 19.00455215 23.04296875 22.85546875 C25.98102682 23.22473288 28.31433485 23.34283258 31 22 C30.67 22.66 30.34 23.32 30 24 C27.03 24 24.06 24 21 24 C21.165 25.051875 21.33 26.10375 21.5 27.1875 C22.25711395 33.10578512 22.08169679 39.04521179 22 45 C27.49101633 39.95065237 31.24247054 33.36992741 32.5234375 25.98046875 C32.73334489 20.07884163 31.95566884 16.42104165 28 12 C25.77109005 10.88554502 24.46944894 10.83519714 22 10.8125 C21.29875 10.79832031 20.5975 10.78414062 19.875 10.76953125 C17.75475062 10.83487677 17.75475062 10.83487677 16 13 Z M0.0625 17.75 C-1.46342741 20.98137569 -1.93916124 23.41051315 -2 27 C2.1501011 36.85649012 11.2034076 41.62342092 20 47 C20.63662598 43.50106354 21.12383975 40.1827053 21.0625 36.625 C21.041875 35.42875 21.02125 34.2325 21 33 C20.05125 33.804375 19.1025 34.60875 18.125 35.4375 C16.42067644 36.88246997 15.00519014 37.99740493 13 39 C13.42152344 38.46890625 13.84304687 37.9378125 14.27734375 37.390625 C14.82519531 36.68421875 15.37304688 35.9778125 15.9375 35.25 C16.75541016 34.20585938 16.75541016 34.20585938 17.58984375 33.140625 C19.01216092 30.98153965 19.67610427 29.55067889 20 27 C19.411438 24.645752 18.75407101 22.30657014 18 20 C15.35247996 22.57784846 13.05567935 24.91648098 11 28 C10.01 28.33 9.02 28.66 8 29 C8.40992187 28.48050781 8.81984375 27.96101563 9.2421875 27.42578125 C13.48778945 22.16902789 13.48778945 22.16902789 16 16 C15.34 15.01 14.68 14.02 14 13 C8.71917099 13 4.05539764 14.14351181 0.0625 17.75 Z " fill="#000000" transform="translate(57,25)"/>
<path d="M0 0 C4.35599648 3.8247774 5.99609128 6.17868561 6.578125 12.14453125 C6.55355308 15.45559716 5.6643313 18.13894692 4.5625 21.25 C5.59310547 20.70859375 5.59310547 20.70859375 6.64453125 20.15625 C7.54558594 19.6921875 8.44664063 19.228125 9.375 18.75 C10.26832031 18.2859375 11.16164062 17.821875 12.08203125 17.34375 C14.5625 16.25 14.5625 16.25 17.5625 16.25 C17.19731546 18.76924408 16.97941257 19.92761414 14.92578125 21.515625 C10.62478667 23.5801024 7.45030895 24.73878089 2.5625 24.25 C2.459375 25.136875 2.35625 26.02375 2.25 26.9375 C1.24662447 31.77194572 -0.02205955 34.31709607 -4.1875 37.0625 C-9.35626284 38.95108642 -13.40756127 38.93481895 -18.4375 36.75 C-27.48348317 31.70310978 -32.03924056 22.72635434 -35.4375 13.25 C-35.83291067 10.92638085 -36.18337347 8.59328301 -36.4375 6.25 C-35.32955078 5.88648438 -35.32955078 5.88648438 -34.19921875 5.515625 C-33.18472656 5.18046875 -32.17023437 4.8453125 -31.125 4.5 C-30.02800781 4.1390625 -28.93101563 3.778125 -27.80078125 3.40625 C-24.75897419 2.36051842 -21.79734698 1.19564686 -18.8125 0 C-12.20604034 -2.40234897 -6.39761559 -3.25696794 0 0 Z M-22.9375 4.75 C-23.8553125 5.08386719 -24.773125 5.41773438 -25.71875 5.76171875 C-27.96277086 6.57985136 -30.2018252 7.40938628 -32.4375 8.25 C-28.21442142 12.57712919 -28.21442142 12.57712919 -23.4375 16.25 C-22.7775 16.25 -22.1175 16.25 -21.4375 16.25 C-21.7675 13.61 -22.0975 10.97 -22.4375 8.25 C-21.7775 8.25 -21.1175 8.25 -20.4375 8.25 C-20.375625 9.301875 -20.31375 10.35375 -20.25 11.4375 C-19.27536633 16.01078108 -18.1727789 17.48914168 -14.4375 20.25 C-10.75308496 21.13527109 -10.75308496 21.13527109 -7.4375 21.25 C-7.9325 20.115625 -8.4275 18.98125 -8.9375 17.8125 C-10.68396333 13.22905868 -10.74050849 9.09813585 -10.4375 4.25 C-9.7775 4.25 -9.1175 4.25 -8.4375 4.25 C-8.705625 5.36375 -8.97375 6.4775 -9.25 7.625 C-10.02405312 13.30817946 -7.25510484 17.49224512 -4.4375 22.25 C-2.7875 22.25 -1.1375 22.25 0.5625 22.25 C2.95182458 16.80233995 4.35264409 13.1798523 2.5625 7.25 C0.37258403 4.66702219 -1.40581688 2.76584156 -4.4375 1.25 C-11.30937023 0.69282133 -16.54388922 2.34310292 -22.9375 4.75 Z M-31.4375 13.25 C-28.2716896 22.03998754 -25.14619289 29.81027421 -16.4375 34.25 C-12.59117692 35.34786781 -9.44707072 35.63139338 -5.625 34.1875 C-2.94385009 31.81276722 -1.77287103 29.55328624 -0.4375 26.25 C-0.4375 25.59 -0.4375 24.93 -0.4375 24.25 C-3.79564564 23.59141222 -7.01032709 23.11899186 -10.4375 23.25 C-13.8260413 25.73954055 -15.11401025 27.27953076 -16.4375 31.25 C-17.0975 31.25 -17.7575 31.25 -18.4375 31.25 C-17.42838542 29.4921875 -16.41927083 27.734375 -15.41015625 25.9765625 C-14.72030949 24.75201525 -14.06605462 23.50710923 -13.4375 22.25 C-14.40171875 21.76789063 -15.3659375 21.28578125 -16.359375 20.7890625 C-21.38541667 18.27604167 -26.41145833 15.76302083 -31.4375 13.25 Z " fill="#000000" transform="translate(44.4375,56.75)"/>
<path d="M0 0 C0.79019531 -0.01224609 1.58039062 -0.02449219 2.39453125 -0.03710938 C7.04231548 -0.0487095 10.75195373 0.40875289 15.125 2.1875 C13.75065415 28.66174119 13.75065415 28.66174119 6.5625 37 C3.53802071 39.49848289 0.04528329 39.51540852 -3.7421875 39.48046875 C-8.21913187 38.86550386 -11.71601388 36.34648612 -14.875 33.1875 C-16.61456658 34.92706658 -16.24690386 37.3811622 -16.4375 39.75 C-16.52128906 40.76191406 -16.60507812 41.77382813 -16.69140625 42.81640625 C-16.75199219 43.59886719 -16.81257813 44.38132813 -16.875 45.1875 C-17.865 44.8575 -18.855 44.5275 -19.875 44.1875 C-19.90225341 42.4584226 -19.92150987 40.72921824 -19.9375 39 C-19.94910156 38.03707031 -19.96070313 37.07414062 -19.97265625 36.08203125 C-19.875 33.1875 -19.875 33.1875 -19.22265625 30.4921875 C-19.10792969 29.73164062 -18.99320313 28.97109375 -18.875 28.1875 C-21.18756494 25.45823609 -21.18756494 25.45823609 -23.875 23.1875 C-25.75762368 19.42225264 -25.51795749 15.27793432 -24.875 11.1875 C-22.18089877 6.15353923 -18.15088994 3.25197867 -12.875 1.1875 C-8.57234871 -0.06548189 -4.45066929 0.00359505 0 0 Z M-18.8125 8.75 C-21.27979723 11.66589673 -21.8101527 12.6254901 -22.25 16.4375 C-21.76016222 21.33587783 -20.2498579 22.72827065 -16.875 26.1875 C-12.40363641 21.34138972 -12.40363641 21.34138972 -11.0625 15.3125 C-11.88919317 12.13291088 -13.04319356 9.89538778 -14.875 7.1875 C-12.18121949 9.70169515 -10.42694754 11.85990077 -8.875 15.1875 C-8.40191406 14.81238281 -7.92882813 14.43726563 -7.44140625 14.05078125 C-2.49693225 10.22435595 2.58820555 7.08406376 8.125 4.1875 C8.125 3.8575 8.125 3.5275 8.125 3.1875 C-6.33016876 2.31927189 -6.33016876 2.31927189 -18.8125 8.75 Z M4.5 8.1875 C3.49710938 8.744375 2.49421875 9.30125 1.4609375 9.875 C0.69007812 10.308125 -0.08078125 10.74125 -0.875 11.1875 C-0.875 11.5175 -0.875 11.8475 -0.875 12.1875 C1.765 12.5175 4.405 12.8475 7.125 13.1875 C7.125 13.8475 7.125 14.5075 7.125 15.1875 C6.135 14.8575 5.145 14.5275 4.125 14.1875 C1.06109438 13.78586443 -1.81872434 13.6950703 -4.875 14.1875 C-7.98361514 16.37604423 -7.98361514 16.37604423 -9.875 19.1875 C-9.875 19.8475 -9.875 20.5075 -9.875 21.1875 C-8.75351562 21.33445312 -8.75351562 21.33445312 -7.609375 21.484375 C0.53494854 22.72094768 0.53494854 22.72094768 3.8125 25.3125 C4.245625 25.93125 4.67875 26.55 5.125 27.1875 C4.39796875 26.754375 4.39796875 26.754375 3.65625 26.3125 C-1.48848587 23.46310783 -4.99950405 22.58999194 -10.875 23.1875 C-11.865 23.8475 -12.855 24.5075 -13.875 25.1875 C-13.58846097 28.5304554 -12.86996782 30.19441925 -10.875 32.9375 C-6.93324905 35.89381321 -3.74944503 36.46274189 1.125 36.1875 C4.90081945 34.92889352 6.36480086 33.10586551 8.18359375 29.71484375 C10.56004674 24.8184977 11.00008359 20.06130183 11.375 14.6875 C11.49101563 13.31078125 11.49101563 13.31078125 11.609375 11.90625 C11.79594443 9.66741678 11.96748743 7.42853249 12.125 5.1875 C9.0978902 5.1875 7.12083932 6.72470596 4.5 8.1875 Z " fill="#000000" transform="translate(37.875,6.8125)"/>
<path d="M0 0 C0.66 0.66 1.32 1.32 2 2 C0.68 2.33 -0.64 2.66 -2 3 C-2 2.34 -2 1.68 -2 1 C-1.34 0.67 -0.68 0.34 0 0 Z " fill="#000000" transform="translate(63,53)"/>
</svg>
