<?xml version="1.0" encoding="UTF-8"?>
<svg version="1.1" xmlns="http://www.w3.org/2000/svg" width="100" height="100">
<path d="M0 0 C7.92589385 -0.58154487 12.44153051 1.01529898 18.80859375 5.69140625 C24.09806215 11.89316972 24.87215331 20.699089 26.23828125 28.5078125 C26.41552734 29.46623047 26.59277344 30.42464844 26.77539062 31.41210938 C27.61020771 36.07612608 28.40121884 40.56214871 28.05078125 45.3203125 C27.05078125 46.3203125 27.05078125 46.3203125 24.67578125 46.6953125 C22.05078125 46.3203125 22.05078125 46.3203125 20.51953125 44.3125 C18.71686328 40.64004343 17.81946205 37.04540468 16.92578125 33.0703125 C16.19998986 28.31557977 16.19998986 28.31557977 14.05078125 24.3203125 C11.13906336 27.99011454 11.13906336 27.99011454 10.05078125 32.3203125 C11.25734375 32.9390625 11.25734375 32.9390625 12.48828125 33.5703125 C15.05078125 35.3203125 15.05078125 35.3203125 15.86328125 38.5078125 C15.92515625 39.4359375 15.98703125 40.3640625 16.05078125 41.3203125 C12.55548831 40.20817384 9.30608933 39.00458059 6.05078125 37.3203125 C6.61667969 38.27550781 7.18257812 39.23070312 7.765625 40.21484375 C12.22969554 47.98256866 15.23088588 54.17357011 15.05078125 63.3203125 C15.07398438 64.47402344 15.0971875 65.62773438 15.12109375 66.81640625 C15.26039868 75.90107764 15.26039868 75.90107764 14.05078125 78.3203125 C11.74078125 78.3203125 9.43078125 78.3203125 7.05078125 78.3203125 C5.6607718 73.94520079 4.83471435 69.97379513 4.46899414 65.36962891 C3.95056192 59.05363459 3.35724666 54.04823594 -1.4140625 49.484375 C-2.88283104 48.37065229 -4.41552202 47.34277699 -5.94921875 46.3203125 C-6.27196777 47.14756836 -6.5947168 47.97482422 -6.92724609 48.82714844 C-8.12967869 51.90651734 -9.33380097 54.98521438 -10.5390625 58.06347656 C-11.05959482 59.39394163 -11.57945931 60.72466818 -12.09863281 62.05566406 C-12.846536 63.97270327 -13.59686417 65.88877816 -14.34765625 67.8046875 C-14.79802246 68.95678711 -15.24838867 70.10888672 -15.71240234 71.29589844 C-16.69873058 73.70778832 -17.73782586 76.01619378 -18.94921875 78.3203125 C-21.82421875 78.4453125 -21.82421875 78.4453125 -24.94921875 78.3203125 C-26.94921875 76.3203125 -26.94921875 76.3203125 -27.23608398 72.78662109 C-27.10593812 67.88820368 -25.81687777 63.50917814 -24.359375 58.859375 C-23.9634037 57.5517067 -23.9634037 57.5517067 -23.55943298 56.21762085 C-22.720515 53.45691063 -21.86617008 50.70124945 -21.01171875 47.9453125 C-20.44108141 46.07191156 -19.87141028 44.19821602 -19.30273438 42.32421875 C-15.16292965 28.74773429 -15.16292965 28.74773429 -13.94921875 26.3203125 C-14.57570313 26.12695312 -15.2021875 25.93359375 -15.84765625 25.734375 C-16.66492187 25.47398438 -17.4821875 25.21359375 -18.32421875 24.9453125 C-19.13632812 24.69007812 -19.9484375 24.43484375 -20.78515625 24.171875 C-22.94921875 23.3203125 -22.94921875 23.3203125 -24.94921875 21.3203125 C-24.69387289 17.11055651 -23.30819921 15.2422717 -20.26171875 12.4453125 C-17.53181015 9.885416 -15.14918228 7.36070368 -12.88671875 4.3828125 C-10.78152762 1.91929097 -10.11430835 1.37085013 -6.88671875 0.3828125 C-3.10734953 0.38333251 -3.10734953 0.38333251 0 0 Z M-8.9921875 13.0703125 C-10.05373047 14.1840625 -10.05373047 14.1840625 -11.13671875 15.3203125 C-11.85214844 16.0628125 -12.56757813 16.8053125 -13.3046875 17.5703125 C-13.84738281 18.1478125 -14.39007813 18.7253125 -14.94921875 19.3203125 C-13.95921875 20.3103125 -12.96921875 21.3003125 -11.94921875 22.3203125 C-7.6093475 18.10915933 -7.6093475 18.10915933 -3.94921875 13.3203125 C-3.94921875 12.6603125 -3.94921875 12.0003125 -3.94921875 11.3203125 C-7.01782506 10.99503642 -7.01782506 10.99503642 -8.9921875 13.0703125 Z M-10.94921875 24.3203125 C-10.94921875 25.3103125 -10.94921875 26.3003125 -10.94921875 27.3203125 C-8.70614847 28.52281408 -6.45633965 29.7072287 -4.19921875 30.8828125 C-3.565 31.22505859 -2.93078125 31.56730469 -2.27734375 31.91992188 C1.4226354 33.86653214 1.4226354 33.86653214 5.50390625 34.03515625 C6.014375 33.79925781 6.52484375 33.56335937 7.05078125 33.3203125 C3.87584118 30.76655635 0.56974464 28.94584097 -3.07421875 27.1328125 C-4.12867188 26.60300781 -5.183125 26.07320312 -6.26953125 25.52734375 C-8.76331152 24.18341375 -8.76331152 24.18341375 -10.94921875 24.3203125 Z " fill="#000000" transform="translate(28.94921875,19.6796875)"/>
<path d="M0 0 C3.35740192 3.50934274 5.4257083 7.51102809 7.453125 11.875 C7.75820984 12.52194824 8.06329468 13.16889648 8.37762451 13.83544922 C9.01626618 15.19532577 9.6514097 16.55685017 10.28320312 17.91992188 C11.24970582 19.99936706 12.23349177 22.07001258 13.21875 24.140625 C13.8396045 25.4682535 14.45943183 26.79636292 15.078125 28.125 C15.51865204 29.04708252 15.51865204 29.04708252 15.96807861 29.98779297 C17.69556197 33.76157958 18 35.66618975 18 40 C0.84 40 -16.32 40 -34 40 C-33.11290539 33.79033774 -32.04106649 30.14249675 -29.375 24.75 C-29.05660156 24.04359375 -28.73820312 23.3371875 -28.41015625 22.609375 C-25.81180187 17.31234367 -23.52872554 15.91732525 -18 14 C-17.67 13.34 -17.34 12.68 -17 12 C-20.465 10.02 -20.465 10.02 -24 8 C-23.34 6.68 -22.68 5.36 -22 4 C-18.44219804 4.60990891 -15.3171411 5.5783681 -12 7 C-11.731875 6.21625 -11.46375 5.4325 -11.1875 4.625 C-8.83696189 -0.57092635 -5.20271078 -0.63892939 0 0 Z " fill="#000000" transform="translate(82,60)"/>
<path d="M0 0 C2.93423195 1.79646854 4.47205355 2.9441071 6 6 C6.53118252 10.91996928 6.75105553 14.77327597 4.125 19.0625 C0.38214851 22.47509989 -2.60769925 22.32843064 -7.515625 22.29296875 C-10.97198834 21.88537873 -12.68663869 20.53723498 -15 18 C-16.84862688 14.30274625 -16.47587094 10.03538558 -16 6 C-11.95766104 -0.60248696 -7.2842127 -0.85898735 0 0 Z " fill="#000000" transform="translate(56,0)"/>
</svg>
