<?xml version="1.0" encoding="UTF-8"?>
<svg version="1.1" xmlns="http://www.w3.org/2000/svg" width="100" height="100">
<path d="M0 0 C14.19 0 28.38 0 43 0 C43.04596523 6.72624595 43.08577548 13.45194467 43.10986328 20.17822266 C43.11990733 22.46535084 43.13354508 24.75246623 43.15087891 27.03955078 C43.17519708 30.33108686 43.18649924 33.62245282 43.1953125 36.9140625 C43.20563507 37.93303619 43.21595764 38.95200989 43.22659302 40.00186157 C43.22681961 41.44267593 43.22681961 41.44267593 43.22705078 42.91259766 C43.231492 43.75198883 43.23593323 44.59138 43.24050903 45.45620728 C43 48 43 48 41 54 C21.53 54 2.06 54 -18 54 C-18 41.46 -18 28.92 -18 16 C-17.01 16 -16.02 16 -15 16 C-15 15.01 -15 14.02 -15 13 C-13.02 13 -11.04 13 -9 13 C-9 13.99 -9 14.98 -9 16 C-7.02 16 -5.04 16 -3 16 C-3 15.01 -3 14.02 -3 13 C-2.01 12.67 -1.02 12.34 0 12 C0 8.04 0 4.08 0 0 Z M11 10 C11.33 10.66 11.66 11.32 12 12 C12.33 11.34 12.66 10.68 13 10 C12.34 10 11.68 10 11 10 Z M23 10 C24 13 24 13 24 13 Z M6 21 C6 23.64 6 26.28 6 29 C6.33 29 6.66 29 7 29 C7 26.36 7 23.72 7 21 C6.67 21 6.34 21 6 21 Z M36 23 C37 26 37 26 37 26 Z M-5 33 C-5 33.33 -5 33.66 -5 34 C-3.35 34 -1.7 34 0 34 C0 33.67 0 33.34 0 33 C-1.65 33 -3.3 33 -5 33 Z M-13 36 C-13 36.66 -13 37.32 -13 38 C-10.525 38.495 -10.525 38.495 -8 39 C-8 38.34 -8 37.68 -8 37 C-9.65 36.67 -11.3 36.34 -13 36 Z M19 36 C20 40 20 40 20 40 Z M23 38 C23 38.33 23 38.66 23 39 C24.98 39 26.96 39 29 39 C29 38.67 29 38.34 29 38 C27.02 38 25.04 38 23 38 Z M-12 48 C-11 50 -11 50 -11 50 Z " fill="#000000" transform="translate(36,35)"/>
<path d="M0 0 C1.39120471 0.00015906 2.78241534 0.00585033 4.17358398 0.01586914 C4.90463852 0.01728409 5.63569305 0.01869904 6.38890076 0.02015686 C8.73253406 0.02577131 11.07607313 0.03832617 13.41967773 0.05102539 C15.00496282 0.05603853 16.59024939 0.06060176 18.17553711 0.06469727 C22.06945383 0.07574542 25.96329979 0.09301967 29.85717773 0.11352539 C31.12106406 3.08467752 31.90370923 5.44506232 32.35717773 8.67602539 C32.79531866 11.68824426 33.3157435 13.54446834 34.85717773 16.11352539 C35.84717773 16.11352539 36.83717773 16.11352539 37.85717773 16.11352539 C37.85717773 18.42352539 37.85717773 20.73352539 37.85717773 23.11352539 C21.68717773 23.11352539 5.51717773 23.11352539 -11.14282227 23.11352539 C-11.14282227 20.80352539 -11.14282227 18.49352539 -11.14282227 16.11352539 C-10.15282227 16.11352539 -9.16282227 16.11352539 -8.14282227 16.11352539 C-6.33227724 12.92423897 -5.65386374 10.03596292 -5.08032227 6.42602539 C-4.07404101 0.14716298 -4.07404101 0.14716298 0 0 Z " fill="#000000" transform="translate(44.142822265625,10.886474609375)"/>
</svg>
