<?xml version="1.0" encoding="UTF-8"?>
<svg version="1.1" xmlns="http://www.w3.org/2000/svg" width="100" height="100">
<path d="M0 0 C1.06734375 -0.00257812 2.1346875 -0.00515625 3.234375 -0.0078125 C4.35328125 -0.00007812 5.4721875 0.00765625 6.625 0.015625 C7.74390625 0.00789062 8.8628125 0.00015625 10.015625 -0.0078125 C11.08296875 -0.00523438 12.1503125 -0.00265625 13.25 0 C14.72339844 0.00338379 14.72339844 0.00338379 16.2265625 0.00683594 C18.625 0.265625 18.625 0.265625 20.625 2.265625 C20.625 4.905625 20.625 7.545625 20.625 10.265625 C27.885 10.265625 35.145 10.265625 42.625 10.265625 C42.625 11.585625 42.625 12.905625 42.625 14.265625 C41.305 14.265625 39.985 14.265625 38.625 14.265625 C38.625 26.805625 38.625 39.345625 38.625 52.265625 C42.915 52.265625 47.205 52.265625 51.625 52.265625 C53.275 52.925625 54.925 53.585625 56.625 54.265625 C55.7544737 59.61188753 54.81069425 64.94192233 53.8125 70.265625 C53.65974609 71.1421875 53.50699219 72.01875 53.34960938 72.921875 C52.06145408 79.68341744 50.1937058 83.82535449 45.125 88.640625 C39.36446409 91.31515953 32.64837631 91.2734171 26.625 89.265625 C25.965 91.575625 25.305 93.885625 24.625 96.265625 C22.975 96.265625 21.325 96.265625 19.625 96.265625 C19.48214286 88.83705357 19.48214286 88.83705357 20.625 85.265625 C19.635 84.770625 19.635 84.770625 18.625 84.265625 C17.965 86.905625 17.305 89.545625 16.625 92.265625 C10.96501954 92.31497426 5.30516364 92.35132029 -0.35498047 92.37548828 C-2.28143494 92.38556082 -4.20787408 92.39921943 -6.13427734 92.41650391 C-8.89945252 92.44069741 -11.664426 92.45209536 -14.4296875 92.4609375 C-15.2943161 92.47126007 -16.1589447 92.48158264 -17.04977417 92.49221802 C-19.15953521 92.49261606 -21.26880718 92.38827743 -23.375 92.265625 C-25.81633237 89.82429263 -25.60958132 88.52453689 -25.62384033 85.19372559 C-25.61664978 84.49026001 -25.60945923 83.78679443 -25.60205078 83.06201172 C-25.60234283 82.3204483 -25.60263489 81.57888489 -25.60293579 80.81484985 C-25.60153994 78.35821929 -25.58596698 75.90189022 -25.5703125 73.4453125 C-25.56658327 71.74423386 -25.56373587 70.04315308 -25.56173706 68.34207153 C-25.55409349 63.86051524 -25.53443884 59.37908817 -25.5123291 54.89758301 C-25.49188622 50.32627104 -25.48273868 45.75493823 -25.47265625 41.18359375 C-25.45119359 32.21088066 -25.41704896 23.23826357 -25.375 14.265625 C-26.695 14.265625 -28.015 14.265625 -29.375 14.265625 C-29.375 12.945625 -29.375 11.625625 -29.375 10.265625 C-22.115 10.265625 -14.855 10.265625 -7.375 10.265625 C-7.375 7.625625 -7.375 4.985625 -7.375 2.265625 C-4.76631631 -0.34305869 -3.62967636 0.00833587 0 0 Z M-3.375 6.265625 C-3.375 7.585625 -3.375 8.905625 -3.375 10.265625 C3.225 10.265625 9.825 10.265625 16.625 10.265625 C16.1797002 5.63542513 16.1797002 5.63542513 14.625 4.265625 C11.96677343 4.13904278 9.34612576 4.08042286 6.6875 4.078125 C5.94564453 4.06587891 5.20378906 4.05363281 4.43945312 4.04101562 C0.06456585 3.86010158 0.06456585 3.86010158 -3.375 6.265625 Z M-6.375 25.265625 C-7.59928041 26.2686381 -7.59928041 26.2686381 -7.49525452 28.28407288 C-7.49303391 29.17009689 -7.49081329 30.05612091 -7.48852539 30.96899414 C-7.48844986 31.96995621 -7.48837433 32.97091827 -7.48829651 34.00221252 C-7.48313522 35.0907402 -7.47797394 36.17926788 -7.47265625 37.30078125 C-7.4712413 38.40916855 -7.46982635 39.51755585 -7.46836853 40.65953064 C-7.46275033 44.21575569 -7.45019475 47.77191883 -7.4375 51.328125 C-7.43248734 53.73242097 -7.42792403 56.13671792 -7.42382812 58.54101562 C-7.41277499 64.44924004 -7.39601917 70.3574281 -7.375 76.265625 C-6.055 76.265625 -4.735 76.265625 -3.375 76.265625 C-3.375 59.765625 -3.375 43.265625 -3.375 26.265625 C-4.365 25.935625 -5.355 25.605625 -6.375 25.265625 Z M5.625 25.265625 C4.40071959 26.2686381 4.40071959 26.2686381 4.50474548 28.28407288 C4.50696609 29.17009689 4.50918671 30.05612091 4.51147461 30.96899414 C4.51155014 31.96995621 4.51162567 32.97091827 4.51170349 34.00221252 C4.51686478 35.0907402 4.52202606 36.17926788 4.52734375 37.30078125 C4.5287587 38.40916855 4.53017365 39.51755585 4.53163147 40.65953064 C4.53724967 44.21575569 4.54980525 47.77191883 4.5625 51.328125 C4.56751266 53.73242097 4.57207597 56.13671792 4.57617188 58.54101562 C4.58722501 64.44924004 4.60398083 70.3574281 4.625 76.265625 C5.945 76.265625 7.265 76.265625 8.625 76.265625 C8.625 59.765625 8.625 43.265625 8.625 26.265625 C7.635 25.935625 6.645 25.605625 5.625 25.265625 Z M17.625 25.265625 C16.25182912 26.41150601 16.25182912 26.41150601 16.51147461 29.50024414 C16.51163369 30.93376626 16.51732593 32.36729412 16.52734375 33.80078125 C16.5287587 34.55403183 16.53017365 35.30728241 16.53163147 36.08335876 C16.53724624 38.4983206 16.54980117 40.91319101 16.5625 43.328125 C16.5675131 44.96158721 16.57207634 46.59505086 16.57617188 48.22851562 C16.58722046 52.24092085 16.60449494 56.25325741 16.625 60.265625 C18.74325335 59.24561826 18.74325335 59.24561826 20.625 57.265625 C21.17929661 53.97409358 21.17929661 53.97409358 21.015625 50.19140625 C21.00713531 49.16565742 21.00713531 49.16565742 20.99847412 48.1191864 C20.97610816 45.93811601 20.92591765 43.75869747 20.875 41.578125 C20.854935 40.09833105 20.83668422 38.6185113 20.8203125 37.13867188 C20.77624474 33.5137874 20.70721822 29.88986744 20.625 26.265625 C19.635 25.935625 18.645 25.605625 17.625 25.265625 Z M19 64.515625 C17.03984629 68.43593242 16.6561173 71.97371484 17.625 76.265625 C19.9433856 78.87473463 19.9433856 78.87473463 22.625 80.265625 C24.15978421 78.22232795 25.69025253 76.17679111 27.203125 74.1171875 C36.05446437 62.3291888 36.05446437 62.3291888 42.5625 60.390625 C43.243125 60.349375 43.92375 60.308125 44.625 60.265625 C44.26512133 62.95310601 43.91197986 64.02360121 41.8046875 65.80078125 C41.04414062 66.30480469 40.28359375 66.80882813 39.5 67.328125 C33.99681688 71.36085759 30.93223779 76.38490957 27.625 82.265625 C29.2259525 84.16548952 30.19819374 85.15892344 32.640625 85.76953125 C37.05788356 85.88536845 39.99868632 85.50759485 43.5625 82.765625 C46.98076758 79.37098599 47.97797181 75.94529402 48.625 71.265625 C48.81835938 70.15445313 49.01171875 69.04328125 49.2109375 67.8984375 C50.02432973 63.09650093 50.02432973 63.09650093 50.625 58.265625 C48.26200332 55.90262832 42.00821463 56.89539378 38.70849609 56.8762207 C30.55647616 57.01443163 25.18589026 59.21343335 19 64.515625 Z " fill="#000000" transform="translate(43.375,3.734375)"/>
</svg>
