<?xml version="1.0" encoding="UTF-8"?>
<svg xmlns="http://www.w3.org/2000/svg" xmlns:xlink="http://www.w3.org/1999/xlink" width="198px" height="150px" viewBox="0 0 198 150" version="1.1">
<g id="surface1">
<path style=" stroke:none;fill-rule:nonzero;fill:rgb(0%,0%,0%);fill-opacity:1;" d="M 53.101562 58.425781 C 50.925781 59.101562 49.785156 61.738281 50.761719 63.824219 C 51.375 65.160156 52.890625 66.148438 54.300781 66.148438 C 55.078125 66.148438 56.265625 65.683594 56.878906 65.128906 C 59.144531 63.089844 58.335938 59.28125 55.441406 58.425781 C 54.539062 58.15625 53.984375 58.15625 53.101562 58.425781 Z M 53.101562 58.425781 "/>
<path style=" stroke:none;fill-rule:nonzero;fill:rgb(0%,0%,0%);fill-opacity:1;" d="M 51.703125 67.351562 C 50.835938 67.5 49.769531 68.011719 49.125 68.566406 C 48.871094 68.789062 48.253906 69.496094 47.761719 70.109375 L 46.875 71.25 L 45.226562 71.25 C 43.230469 71.25 42.601562 71.414062 42.074219 72.03125 C 41.503906 72.691406 41.609375 73.679688 42.285156 74.28125 L 42.75 74.699219 L 45.121094 74.699219 C 48.046875 74.699219 48.601562 74.503906 49.738281 73.066406 L 50.476562 72.164062 L 50.519531 74.863281 C 50.550781 77.144531 50.445312 78.660156 49.875 84.613281 C 49.5 88.484375 49.199219 91.996094 49.199219 92.414062 C 49.199219 93.105469 49.261719 93.238281 49.785156 93.765625 C 50.28125 94.261719 50.460938 94.351562 51.015625 94.351562 C 51.808594 94.351562 52.546875 93.929688 52.859375 93.316406 C 53.023438 93.015625 53.28125 90.929688 53.699219 86.761719 C 54.03125 83.398438 54.328125 80.609375 54.375 80.578125 C 54.421875 80.535156 54.449219 80.535156 54.449219 80.566406 C 54.449219 81.316406 55.679688 92.910156 55.785156 93.164062 C 55.859375 93.375 56.144531 93.734375 56.398438 93.945312 C 56.773438 94.273438 57.03125 94.351562 57.628906 94.351562 C 58.304688 94.351562 58.441406 94.289062 58.964844 93.765625 C 59.476562 93.269531 59.550781 93.089844 59.550781 92.503906 C 59.550781 92.128906 59.25 88.664062 58.875 84.808594 C 58.230469 78 57.988281 73.066406 58.335938 73.441406 C 58.53125 73.636719 59.488281 76.289062 59.699219 77.25 C 59.96875 78.390625 60.628906 79.050781 61.5 79.050781 C 61.980469 79.050781 62.21875 78.960938 62.550781 78.613281 C 63.226562 77.941406 63.253906 77.550781 62.730469 75.675781 C 61.636719 71.699219 59.894531 68.746094 58.035156 67.726562 C 57.238281 67.289062 57.179688 67.273438 54.824219 67.246094 C 53.503906 67.230469 52.109375 67.273438 51.703125 67.351562 Z M 51.703125 67.351562 "/>
<path style=" stroke:none;fill-rule:nonzero;fill:rgb(0%,0%,0%);fill-opacity:1;" d="M 137.160156 68.460938 C 136.664062 68.953125 136.574219 69.226562 136.648438 70.050781 C 136.726562 71.023438 137.773438 71.714844 138.765625 71.414062 C 140.324219 70.949219 140.609375 68.894531 139.199219 68.175781 C 138.449219 67.785156 137.730469 67.890625 137.160156 68.460938 Z M 137.160156 68.460938 "/>
<path style=" stroke:none;fill-rule:nonzero;fill:rgb(0%,0%,0%);fill-opacity:1;" d="M 117.75 72.601562 L 117.75 74.398438 L 114.898438 74.398438 L 114.898438 76.5 L 117.75 76.5 L 117.75 80.476562 C 117.75 85.214844 117.824219 85.738281 118.726562 86.625 C 119.488281 87.40625 120.554688 87.691406 122.054688 87.539062 C 123.71875 87.375 123.75 87.34375 123.75 86.023438 C 123.75 84.898438 123.75 84.886719 123.421875 85.066406 C 123.226562 85.171875 122.65625 85.261719 122.128906 85.261719 C 121.320312 85.261719 121.140625 85.199219 120.796875 84.871094 C 120.253906 84.316406 120.164062 83.625 120.148438 79.84375 L 120.148438 76.515625 L 121.921875 76.46875 L 123.675781 76.425781 L 123.71875 75.40625 L 123.765625 74.398438 L 120.148438 74.398438 L 120.148438 70.800781 L 117.75 70.800781 Z M 117.75 72.601562 "/>
<path style=" stroke:none;fill-rule:nonzero;fill:rgb(0%,0%,0%);fill-opacity:1;" d="M 37.574219 74.429688 C 37.289062 74.863281 37.050781 75.300781 37.050781 75.40625 C 37.050781 75.601562 38.503906 76.648438 38.773438 76.648438 C 38.851562 76.648438 39.179688 76.261719 39.480469 75.796875 C 39.871094 75.179688 39.988281 74.878906 39.886719 74.746094 C 39.703125 74.535156 38.355469 73.648438 38.203125 73.648438 C 38.144531 73.648438 37.875 74.011719 37.574219 74.429688 Z M 37.574219 74.429688 "/>
<path style=" stroke:none;fill-rule:nonzero;fill:rgb(0%,0%,0%);fill-opacity:1;" d="M 93.613281 74.324219 C 92.699219 74.578125 91.183594 75.359375 90.839844 75.734375 C 90.628906 75.976562 90.675781 76.050781 91.335938 76.710938 L 92.070312 77.429688 L 92.851562 76.890625 C 93.78125 76.246094 94.515625 76.035156 95.773438 76.035156 C 96.765625 76.035156 97.636719 76.351562 98.128906 76.90625 C 98.488281 77.296875 98.851562 78.210938 98.851562 78.71875 L 98.851562 79.15625 L 96.855469 79.246094 C 93.496094 79.378906 91.558594 80.101562 90.523438 81.570312 C 90.148438 82.125 90.074219 82.394531 90.03125 83.324219 C 89.953125 84.691406 90.164062 85.363281 90.929688 86.191406 C 92.730469 88.15625 96.796875 87.988281 98.445312 85.890625 L 98.925781 85.289062 L 99 86.25 L 99.074219 87.226562 L 100.125 87.269531 L 101.175781 87.316406 L 101.128906 82.546875 C 101.085938 77.296875 101.011719 76.785156 100.171875 75.71875 C 99.914062 75.390625 99.328125 74.96875 98.730469 74.671875 C 97.800781 74.203125 97.605469 74.175781 96.074219 74.144531 C 94.964844 74.113281 94.15625 74.175781 93.613281 74.324219 Z M 98.804688 82.050781 C 98.683594 83.488281 98.128906 84.511719 97.140625 85.125 C 96.464844 85.53125 96.285156 85.574219 95.191406 85.574219 C 93.316406 85.558594 92.550781 85.019531 92.429688 83.65625 C 92.371094 82.964844 92.414062 82.800781 92.761719 82.394531 C 93.496094 81.511719 95.128906 81.058594 97.636719 81.015625 L 98.894531 81 Z M 98.804688 82.050781 "/>
<path style=" stroke:none;fill-rule:nonzero;fill:rgb(0%,0%,0%);fill-opacity:1;" d="M 106.859375 74.398438 C 104.910156 75.179688 103.859375 76.90625 104.25 78.703125 C 104.609375 80.296875 105.539062 81.015625 108.136719 81.675781 C 110.445312 82.261719 111.148438 82.710938 111.148438 83.640625 C 111.148438 84.34375 110.65625 84.855469 109.695312 85.140625 C 108.375 85.515625 107.101562 85.214844 105.914062 84.210938 L 105.449219 83.820312 L 104.953125 84.195312 C 104.699219 84.40625 104.28125 84.75 104.023438 84.960938 L 103.574219 85.335938 L 104.175781 85.949219 C 105.421875 87.253906 107.386719 87.796875 109.636719 87.480469 C 111.121094 87.269531 112.125 86.773438 112.921875 85.875 C 113.699219 84.988281 113.953125 83.941406 113.699219 82.753906 C 113.355469 81.089844 112.46875 80.414062 109.828125 79.738281 C 108.105469 79.304688 107.191406 78.898438 106.949219 78.464844 C 106.453125 77.519531 107.160156 76.5 108.433594 76.378906 C 109.53125 76.273438 110.160156 76.441406 110.925781 77.039062 L 111.613281 77.566406 L 112.5 76.875 C 112.996094 76.484375 113.398438 76.140625 113.398438 76.066406 C 113.398438 75.808594 112.214844 74.835938 111.523438 74.519531 C 110.445312 74.039062 107.953125 73.964844 106.859375 74.398438 Z M 106.859375 74.398438 "/>
<path style=" stroke:none;fill-rule:nonzero;fill:rgb(0%,0%,0%);fill-opacity:1;" d="M 131.234375 74.578125 C 130.605469 74.910156 130.109375 75.300781 129.796875 75.71875 L 129.300781 76.378906 L 129.300781 74.398438 L 126.898438 74.398438 L 126.898438 87.300781 L 129.300781 87.300781 L 129.300781 83.578125 C 129.300781 79.335938 129.40625 78.675781 130.304688 77.683594 C 130.980469 76.933594 132.105469 76.574219 133.378906 76.695312 L 134.25 76.769531 L 134.25 74.101562 L 133.230469 74.101562 C 132.359375 74.101562 132.046875 74.175781 131.234375 74.578125 Z M 131.234375 74.578125 "/>
<path style=" stroke:none;fill-rule:nonzero;fill:rgb(0%,0%,0%);fill-opacity:1;" d="M 160.648438 74.339844 C 159.691406 74.59375 158.113281 75.433594 157.890625 75.796875 C 157.753906 76.003906 157.859375 76.171875 158.414062 76.738281 L 159.121094 77.429688 L 159.839844 76.933594 C 160.230469 76.664062 160.828125 76.351562 161.160156 76.246094 C 161.941406 75.976562 163.589844 75.976562 164.25 76.261719 C 165.238281 76.664062 165.898438 77.640625 165.898438 78.660156 L 165.898438 79.15625 L 163.90625 79.246094 C 159.136719 79.441406 157.050781 80.820312 157.050781 83.761719 C 157.066406 85.335938 157.828125 86.476562 159.375 87.179688 C 159.988281 87.449219 160.378906 87.523438 161.566406 87.523438 C 162.886719 87.523438 163.078125 87.480469 163.996094 87.03125 C 164.625 86.714844 165.179688 86.308594 165.496094 85.921875 L 165.976562 85.320312 L 166.050781 86.265625 L 166.125 87.226562 L 167.175781 87.269531 L 168.226562 87.316406 L 168.179688 82.46875 C 168.136719 77.160156 168.074219 76.726562 167.25 75.71875 C 166.980469 75.40625 166.363281 74.953125 165.78125 74.671875 C 164.851562 74.203125 164.65625 74.175781 163.125 74.144531 C 162 74.113281 161.203125 74.175781 160.648438 74.339844 Z M 165.898438 81.71875 C 165.898438 83.296875 165.195312 84.628906 164.054688 85.230469 C 163.246094 85.664062 161.296875 85.710938 160.53125 85.304688 C 159.898438 84.960938 159.449219 84.226562 159.449219 83.550781 C 159.449219 81.929688 161.234375 81.074219 164.671875 81.015625 L 165.898438 81 Z M 165.898438 81.71875 "/>
<path style=" stroke:none;fill-rule:nonzero;fill:rgb(0%,0%,0%);fill-opacity:1;" d="M 68.398438 74.503906 C 68.398438 74.578125 69.34375 77.460938 70.484375 80.925781 L 72.554688 87.226562 L 75.210938 87.226562 L 76.726562 82.546875 C 77.550781 79.964844 78.253906 77.835938 78.300781 77.789062 C 78.34375 77.746094 78.945312 79.320312 79.636719 81.269531 C 80.324219 83.21875 81.089844 85.378906 81.328125 86.054688 L 81.78125 87.300781 L 82.949219 87.300781 C 83.609375 87.300781 84.164062 87.238281 84.210938 87.179688 C 84.269531 87.074219 87.359375 77.59375 88.261719 74.730469 C 88.363281 74.398438 88.351562 74.398438 87.089844 74.398438 L 85.816406 74.398438 L 85.605469 75.105469 C 85.484375 75.511719 84.855469 77.671875 84.210938 79.921875 C 83.203125 83.429688 83.011719 83.96875 82.875 83.65625 C 82.800781 83.460938 82.050781 81.285156 81.226562 78.839844 L 79.726562 74.398438 L 77.113281 74.398438 L 76.050781 77.730469 C 74.21875 83.460938 74.039062 83.984375 73.996094 83.941406 C 73.949219 83.894531 72.496094 79.125 71.414062 75.480469 L 71.085938 74.398438 L 69.75 74.398438 C 69 74.398438 68.398438 74.445312 68.398438 74.503906 Z M 68.398438 74.503906 "/>
<path style=" stroke:none;fill-rule:nonzero;fill:rgb(0%,0%,0%);fill-opacity:1;" d="M 137.101562 80.851562 L 137.101562 87.316406 L 138.34375 87.269531 L 139.574219 87.226562 L 139.621094 80.804688 L 139.648438 74.398438 L 137.101562 74.398438 Z M 137.101562 80.851562 "/>
<path style=" stroke:none;fill-rule:nonzero;fill:rgb(0%,0%,0%);fill-opacity:1;" d="M 144.765625 77.386719 L 147.03125 80.371094 L 144.464844 83.746094 C 143.054688 85.605469 141.898438 87.164062 141.898438 87.226562 C 141.898438 87.269531 142.558594 87.285156 143.355469 87.269531 L 144.824219 87.226562 L 146.671875 84.601562 C 147.691406 83.160156 148.574219 81.960938 148.621094 81.945312 C 148.679688 81.929688 149.566406 83.113281 150.601562 84.601562 L 152.460938 87.300781 L 154.019531 87.300781 C 155.21875 87.300781 155.535156 87.253906 155.460938 87.105469 C 155.398438 87.015625 154.320312 85.574219 153.074219 83.925781 C 151.816406 82.273438 150.703125 80.789062 150.601562 80.609375 C 150.433594 80.324219 150.601562 80.039062 152.535156 77.414062 C 153.691406 75.839844 154.648438 74.503906 154.648438 74.476562 C 154.648438 74.429688 154.003906 74.398438 153.238281 74.398438 L 151.816406 74.398438 L 150.285156 76.648438 C 149.445312 77.894531 148.710938 78.855469 148.648438 78.796875 C 148.589844 78.734375 147.886719 77.714844 147.089844 76.53125 L 145.636719 74.398438 L 142.484375 74.398438 Z M 144.765625 77.386719 "/>
<path style=" stroke:none;fill-rule:nonzero;fill:rgb(0%,0%,0%);fill-opacity:1;" d="M 36.464844 77.835938 L 35.640625 78.554688 L 36.375 79.394531 C 37.183594 80.339844 37.09375 80.339844 38.144531 79.363281 C 38.445312 79.078125 38.699219 78.765625 38.699219 78.675781 C 38.699219 78.554688 37.394531 77.085938 37.304688 77.101562 C 37.289062 77.101562 36.914062 77.429688 36.464844 77.835938 Z M 36.464844 77.835938 "/>
<path style=" stroke:none;fill-rule:nonzero;fill:rgb(0%,0%,0%);fill-opacity:1;" d="M 40.605469 77.25 C 40.289062 77.308594 39.976562 77.414062 39.914062 77.488281 C 39.855469 77.566406 39.871094 78.058594 39.960938 78.601562 L 40.125 79.574219 L 40.933594 79.53125 C 42.390625 79.441406 42.421875 79.394531 42.253906 78.164062 L 42.105469 77.101562 L 41.640625 77.113281 C 41.386719 77.128906 40.921875 77.191406 40.605469 77.25 Z M 40.605469 77.25 "/>
<path style=" stroke:none;fill-rule:nonzero;fill:rgb(0%,0%,0%);fill-opacity:1;" d="M 32.25 81.898438 C 32.085938 82.066406 31.949219 82.261719 31.949219 82.351562 C 31.949219 82.621094 32.550781 83.101562 32.894531 83.101562 C 33.226562 83.101562 33.238281 83.191406 33.871094 88.199219 C 34.214844 91.003906 34.574219 93.433594 34.679688 93.585938 C 35.023438 94.140625 35.476562 94.199219 39.210938 94.199219 C 42.839844 94.199219 42.855469 94.199219 43.183594 93.839844 C 43.648438 93.34375 43.710938 93.046875 44.339844 87.78125 C 44.894531 83.324219 44.925781 83.101562 45.226562 83.101562 C 45.945312 83.101562 46.351562 82.351562 45.898438 81.898438 C 45.613281 81.613281 45.375 81.601562 39.074219 81.601562 C 32.746094 81.601562 32.535156 81.613281 32.25 81.898438 Z M 38.324219 86.101562 L 39.089844 86.851562 L 39.824219 86.101562 C 40.230469 85.695312 40.648438 85.351562 40.738281 85.351562 C 40.84375 85.351562 41.101562 85.558594 41.324219 85.828125 L 41.714844 86.296875 L 40.933594 87.089844 L 40.140625 87.886719 L 40.933594 88.726562 L 41.730469 89.566406 L 41.308594 90.015625 C 41.085938 90.253906 40.816406 90.449219 40.726562 90.449219 C 40.636719 90.449219 40.230469 90.105469 39.824219 89.699219 L 39.089844 88.949219 L 38.324219 89.699219 C 37.90625 90.105469 37.5 90.449219 37.425781 90.449219 C 37.199219 90.449219 36.601562 89.804688 36.601562 89.566406 C 36.601562 89.445312 36.914062 89.011719 37.304688 88.621094 L 38.011719 87.898438 L 37.304688 87.179688 C 36.914062 86.789062 36.601562 86.371094 36.601562 86.25 C 36.601562 86.011719 37.183594 85.351562 37.410156 85.351562 C 37.5 85.351562 37.90625 85.695312 38.324219 86.101562 Z M 38.324219 86.101562 "/>
</g>
</svg>
