<?xml version="1.0" encoding="UTF-8"?>
<svg version="1.1" xmlns="http://www.w3.org/2000/svg" width="100" height="100">
<path d="M0 0 C2.45992071 0.02435565 4.83243188 -0.11342321 7.27734375 -0.3828125 C10 0 10 0 18 5 C18 17.21 18 29.42 18 42 C-15 42 -48 42 -82 42 C-82 33.75 -82 25.5 -82 17 C-75.17624923 13.58812462 -70.1746727 12.66410474 -62.875 15 C-62.25625 15.33 -61.6375 15.66 -61 16 C-61 15.34 -61 14.68 -61 14 C-63.31 13.34 -65.62 12.68 -68 12 C-68 11.34 -68 10.68 -68 10 C-57.65391879 1.97453513 -46.14790843 -1.96779936 -33 -1 C-27.49895069 -0.17271041 -22.22739143 1.07411895 -17 3 C-17.66 2.54625 -18.32 2.0925 -19 1.625 C-19.66 1.08875 -20.32 0.5525 -21 0 C-21 -0.66 -21 -1.32 -21 -2 C-13.47679945 -4.50773352 -7.06236727 -3.08176026 0 0 Z M-15 12 C-14.43260132 16.12973628 -14.43260132 16.12973628 -13 20 C-15.97 20.66 -18.94 21.32 -22 22 C-22.66 20.02 -23.32 18.04 -24 16 C-28.47883696 16.44703986 -28.47883696 16.44703986 -32 19 C-30.35 23.29 -28.7 27.58 -27 32 C-28.98 32.66 -30.96 33.32 -33 34 C-33 34.99 -33 35.98 -33 37 C-32.2575 36.505 -31.515 36.01 -30.75 35.5 C-25.31949958 32.75234823 -18.13221108 33.28354116 -12.3359375 34.609375 C-9.76183049 35.26278674 -9.76183049 35.26278674 -6.6875 33.5 C-0.41692964 30.94925952 4.79769987 32.67413745 11 35 C11 34.34 11 33.68 11 33 C7.17057052 30.09891706 3.72463088 29.46319911 -1 29 C-1.17015625 28.38253906 -1.3403125 27.76507813 -1.515625 27.12890625 C-3.22185424 21.1661796 -5.33581117 15.59885369 -8 10 C-11.10551666 10 -12.35261084 10.5393715 -15 12 Z M-62 30 C-61.67 30.66 -61.34 31.32 -61 32 C-60.360625 31.649375 -59.72125 31.29875 -59.0625 30.9375 C-53.96845106 29.37809726 -48.99337336 30.33554221 -44 32 C-44.66821688 28.87220895 -44.66821688 28.87220895 -47.125 27.8125 C-52.94245995 26.16843523 -57.07017777 26.41467474 -62 30 Z " fill="#000000" transform="translate(82,58)"/>
<path d="M0 0 C16.5 0 33 0 50 0 C48.84966216 19.55574324 48.84966216 19.55574324 47.9375 27.5625 C47.84662109 28.39201172 47.75574219 29.22152344 47.66210938 30.07617188 C47.44519861 32.05120144 47.22322239 34.02567383 47 36 C43.7 35.67 40.4 35.34 37 35 C36.84821698 25.94361322 37.30962574 17.02417777 38 8 C37.34 8 36.68 8 36 8 C36.01160156 8.77601562 36.02320313 9.55203125 36.03515625 10.3515625 C36.10418029 18.61472608 35.69121931 26.76708427 35 35 C32.03 34.01 29.06 33.02 26 32 C26 24.08 26 16.16 26 8 C25.34 8 24.68 8 24 8 C24 15.59 24 23.18 24 31 C21.03 31.66 18.06 32.32 15 33 C14.34 24.75 13.68 16.5 13 8 C12.34 8 11.68 8 11 8 C11.33 8.99 11.66 9.98 12 11 C12.14889747 12.84466442 12.2479101 14.69357275 12.31640625 16.54296875 C12.37924805 18.15268555 12.37924805 18.15268555 12.44335938 19.79492188 C12.48267578 20.91447266 12.52199219 22.03402344 12.5625 23.1875 C12.60568359 24.31865234 12.64886719 25.44980469 12.69335938 26.61523438 C12.79949099 29.41003354 12.90154385 32.20492162 13 35 C9.42355152 36.2380014 6.66305234 35.74926071 3 35 C2.49131204 30.85518522 1.99464043 26.70901276 1.5 22.5625 C1.35691406 21.39783203 1.21382812 20.23316406 1.06640625 19.03320312 C0.93105469 17.88916016 0.79570313 16.74511719 0.65625 15.56640625 C0.53056641 14.52427979 0.40488281 13.48215332 0.27539062 12.40844727 C-0.05779231 8.28471775 0 4.13716762 0 0 Z " fill="#000000" transform="translate(47,21)"/>
<path d="M0 0 C0.99261337 0.00222061 1.98522675 0.00444122 3.00791931 0.00672913 C4.12900589 0.00680466 5.25009247 0.00688019 6.40515137 0.00695801 C8.2348069 0.01469994 8.2348069 0.01469994 10.10142517 0.02259827 C11.96377052 0.02472069 11.96377052 0.02472069 13.86373901 0.02688599 C17.16982383 0.03154861 20.47584039 0.04053955 23.78190613 0.05158997 C27.15338042 0.06180625 30.52486175 0.06638407 33.89634705 0.07142639 C40.5155091 0.08248057 47.13462964 0.09975792 53.75376892 0.12025452 C53.75376892 4.08025452 53.75376892 8.04025452 53.75376892 12.12025452 C46.46954915 12.14281058 39.18534833 12.16117252 31.90110111 12.17206669 C28.51905079 12.17729427 25.13702552 12.18438962 21.75498962 12.19569397 C17.87047115 12.20859718 13.98596295 12.21348375 10.10142517 12.21791077 C8.88165482 12.22307205 7.66188446 12.22823334 6.40515137 12.23355103 C4.7235215 12.23366432 4.7235215 12.23366432 3.00791931 12.23377991 C2.01530594 12.23600052 1.02269257 12.23822113 0 12.24050903 C-2.24623108 12.12025452 -2.24623108 12.12025452 -3.24623108 11.12025452 C-3.34447045 9.455964 -3.37596739 7.78743521 -3.37123108 6.12025452 C-3.3738092 5.21275452 -3.37638733 4.30525452 -3.37904358 3.37025452 C-3.19985104 0.33452211 -3.03749101 0.16261551 0 0 Z " fill="#000000" transform="translate(46.24623107910156,6.8797454833984375)"/>
<path d="M0 0 C1.0063655 2.43504509 2.00526413 4.87270864 3 7.3125 C3.42925781 8.34793945 3.42925781 8.34793945 3.8671875 9.40429688 C5.08910744 12.41545674 6 14.71886984 6 18 C-1.05669794 20.74017916 -5.79089923 21.30018001 -13 19 C-13.70898438 18.88914062 -14.41796875 18.77828125 -15.1484375 18.6640625 C-17 18 -17 18 -18.046875 16.2578125 C-18.27890625 15.55398437 -18.5109375 14.85015625 -18.75 14.125 C-18.99234375 13.42632812 -19.2346875 12.72765625 -19.484375 12.0078125 C-20 10 -20 10 -20 7 C-18.68 6.67 -17.36 6.34 -16 6 C-15.34 8.31 -14.68 10.62 -14 13 C-12.95199219 12.566875 -12.95199219 12.566875 -11.8828125 12.125 C-10.97273438 11.75375 -10.06265625 11.3825 -9.125 11 C-8.22007813 10.62875 -7.31515625 10.2575 -6.3828125 9.875 C-4 9 -4 9 -2 9 C-2.66 6.36 -3.32 3.72 -4 1 C-2 0 -2 0 0 0 Z " fill="#000000" transform="translate(73,70)"/>
<path d="M0 0 C2.71843438 3.62457917 3.41789544 4.80884715 4 9 C0.56703905 10.67613728 -2.87206883 12.33925697 -6.3125 14 C-7.77719727 14.71542969 -7.77719727 14.71542969 -9.27148438 15.4453125 C-10.20927734 15.89648438 -11.14707031 16.34765625 -12.11328125 16.8125 C-13.40939331 17.44091797 -13.40939331 17.44091797 -14.73168945 18.08203125 C-17 19 -17 19 -20 19 C-20.99 16.36 -21.98 13.72 -23 11 C-15.41 7.37 -7.82 3.74 0 0 Z " fill="#000000" transform="translate(28,37)"/>
<path d="M0 0 C0 1.32 0 2.64 0 4 C1.32 4.66 2.64 5.32 4 6 C4 6.66 4 7.32 4 8 C3.0821875 8.30292969 2.164375 8.60585938 1.21875 8.91796875 C-5.76292235 11.30141782 -11.85085011 13.86114911 -18 18 C-18.66 18 -19.32 18 -20 18 C-20.66 15.03 -21.32 12.06 -22 9 C-18.89909818 7.49290789 -15.79464369 5.99412108 -12.6875 4.5 C-11.80642578 4.07074219 -10.92535156 3.64148437 -10.01757812 3.19921875 C-9.17001953 2.79316406 -8.32246094 2.38710938 -7.44921875 1.96875 C-6.27879028 1.40317383 -6.27879028 1.40317383 -5.0847168 0.82617188 C-3 0 -3 0 0 0 Z " fill="#000000" transform="translate(33,48)"/>
<path d="M0 0 C0 0.99 0 1.98 0 3 C-6.6 5.97 -13.2 8.94 -20 12 C-21 8 -21 8 -20.453125 5.9609375 C-18.3457059 3.11705474 -15.93675528 2.11651788 -12.75 0.625 C-11.63109375 0.08101562 -10.5121875 -0.46296875 -9.359375 -1.0234375 C-5.41868697 -2.16898635 -3.68089656 -1.66198057 0 0 Z " fill="#000000" transform="translate(26,34)"/>
<path d="M0 0 C2.22384959 1.98483772 2.36604206 3.58677458 2.671875 6.4921875 C0.57351496 7.52490392 -1.53203391 8.54302467 -3.640625 9.5546875 C-4.81238281 10.12316406 -5.98414063 10.69164062 -7.19140625 11.27734375 C-10.328125 12.4921875 -10.328125 12.4921875 -13.328125 11.4921875 C-13.658125 9.5121875 -13.988125 7.5321875 -14.328125 5.4921875 C-12.42205215 4.43126016 -10.50279754 3.39398649 -8.578125 2.3671875 C-6.97710937 1.49707031 -6.97710937 1.49707031 -5.34375 0.609375 C-2.328125 -0.5078125 -2.328125 -0.5078125 0 0 Z " fill="#000000" transform="translate(17.328125,24.5078125)"/>
<path d="M0 0 C6.6 0 13.2 0 20 0 C20 1.65 20 3.3 20 5 C13.4 5 6.8 5 0 5 C0 3.35 0 1.7 0 0 Z " fill="#000000" transform="translate(62,0)"/>
</svg>
