<?xml version="1.0" encoding="UTF-8"?>
<svg version="1.1" xmlns="http://www.w3.org/2000/svg" width="100" height="100">
<path d="M0 0 C1.155 -0.020625 2.31 -0.04125 3.5 -0.0625 C11.29845833 -0.0981094 17.60174144 0.0984527 23.74609375 5.40625 C24.38675781 6.1796875 25.02742188 6.953125 25.6875 7.75 C26.34621094 8.5234375 27.00492187 9.296875 27.68359375 10.09375 C30.36615649 13.78645482 30.38986134 16.90703262 30.4609375 21.34375 C30.48929687 22.53871094 30.51765625 23.73367187 30.546875 24.96484375 C30.59895526 27.48813215 30.64322736 30.01159381 30.6796875 32.53515625 C30.710625 33.73011719 30.7415625 34.92507812 30.7734375 36.15625 C30.8031665 37.80077148 30.8031665 37.80077148 30.83349609 39.47851562 C31.30116248 42.59044342 31.81418225 43.36655323 34.25 45.25 C37.12438129 47.78219304 38.98197889 49.4794393 40.25 53.125 C40.25 57.25477026 39.30443784 59.67130182 37.25 63.25 C31.57512751 68.74260662 24.82228972 67.82779541 17.3125 67.78125 C15.94539108 67.78394807 14.57828403 67.7878331 13.21118164 67.79284668 C10.35316606 67.79872711 7.49565231 67.79022682 4.63769531 67.77148438 C0.98582511 67.74869452 -2.66486905 67.7618256 -6.31669617 67.78577423 C-9.13758097 67.80027235 -11.95818985 67.79560813 -14.77908325 67.78526306 C-16.77647674 67.78132109 -18.77388122 67.79340657 -20.77124023 67.80578613 C-32.14815543 67.68834749 -32.14815543 67.68834749 -36.75 63.25 C-39.17237112 59.23794784 -39.89788689 57.2194807 -39.1875 52.5625 C-37.47937223 48.62637949 -35.48670841 46.59116292 -32.14208984 44.00830078 C-30.13304718 41.47074813 -30.39698124 39.57211949 -30.4140625 36.3671875 C-30.40117187 35.19929688 -30.38828125 34.03140625 -30.375 32.828125 C-30.375 30.38280002 -30.38266154 27.93746159 -30.3984375 25.4921875 C-30.30016029 18.02311955 -29.63754414 12.15405582 -24.75 6.25 C-16.89601944 -0.05718016 -9.78168551 0.04309113 0 0 Z M-0.75 17.25 C-2.07 19.89 -3.39 22.53 -4.75 25.25 C-3.43 24.59 -2.11 23.93 -0.75 23.25 C-0.75 22.59 -0.75 21.93 -0.75 21.25 C-0.09 21.25 0.57 21.25 1.25 21.25 C1.518125 21.95125 1.78625 22.6525 2.0625 23.375 C3.3181449 26.4149824 4.75235123 29.3227774 6.25 32.25 C5.59 32.25 4.93 32.25 4.25 32.25 C4.25 32.91 4.25 33.57 4.25 34.25 C6.23 34.58 8.21 34.91 10.25 35.25 C10.58 33.27 10.91 31.29 11.25 29.25 C10.65703125 29.19972656 10.0640625 29.14945313 9.453125 29.09765625 C6.18511179 27.84028237 5.55094806 25.75414731 4 22.6875 C3.47921875 21.67558594 2.9584375 20.66367187 2.421875 19.62109375 C1.84179688 18.44740234 1.84179688 18.44740234 1.25 17.25 C0.59 17.25 -0.07 17.25 -0.75 17.25 Z M-11.75 31.25 C-12.08 31.91 -12.41 32.57 -12.75 33.25 C-12.09 33.25 -11.43 33.25 -10.75 33.25 C-11.08773437 33.91386719 -11.42546875 34.57773437 -11.7734375 35.26171875 C-12.44246094 36.58623047 -12.44246094 36.58623047 -13.125 37.9375 C-13.56585938 38.80761719 -14.00671875 39.67773438 -14.4609375 40.57421875 C-15.67664268 43.09772799 -16.74260958 45.63737532 -17.75 48.25 C-14.78 48.25 -11.81 48.25 -8.75 48.25 C-8.75 47.59 -8.75 46.93 -8.75 46.25 C-10.4 45.92 -12.05 45.59 -13.75 45.25 C-12.1 42.28 -10.45 39.31 -8.75 36.25 C-7.76 36.25 -6.77 36.25 -5.75 36.25 C-6.08 34.6 -6.41 32.95 -6.75 31.25 C-8.4 31.25 -10.05 31.25 -11.75 31.25 Z M13.25 40.25 C13.58 41.9 13.91 43.55 14.25 45.25 C8.31 45.745 8.31 45.745 2.25 46.25 C1.92 45.26 1.59 44.27 1.25 43.25 C0.26 44.24 -0.73 45.23 -1.75 46.25 C-1.09 47.57 -0.43 48.89 0.25 50.25 C1.24 50.25 2.23 50.25 3.25 50.25 C3.25 49.92 3.25 49.59 3.25 49.25 C8.2 48.92 13.15 48.59 18.25 48.25 C16.43664073 43.50821624 16.43664073 43.50821624 13.25 40.25 Z " fill="#000000" transform="translate(49.75,28.75)"/>
<path d="M0 0 C4.56611332 0.07794219 7.52725854 0.49709712 11.3125 3.25 C13.49609709 5.80088416 15.4445957 8.46139111 17.3125 11.25 C16.8484375 10.13625 16.8484375 10.13625 16.375 9 C15.5030075 6.74307824 14.83582993 4.6049847 14.3125 2.25 C19.17301596 -0.34227518 23.96521133 0.06310447 29.3125 0.25 C30.51494874 3.85734623 30.01716964 4.74589104 28.625 8.1875 C28.29113281 9.04214844 27.95726562 9.89679687 27.61328125 10.77734375 C26.0541631 13.74107284 25.08815289 15.31930138 22.3125 17.25 C18.99091441 17.8890171 15.74933757 17.89922353 12.375 17.875 C11.48103516 17.90722656 10.58707031 17.93945312 9.66601562 17.97265625 C3.34453253 17.98204227 3.34453253 17.98204227 0.63354492 16.05908203 C-2.04920519 13.0240219 -3.50387259 9.75465412 -4.5 5.875 C-4.73332031 5.00101563 -4.96664062 4.12703125 -5.20703125 3.2265625 C-5.36558594 2.57429687 -5.52414063 1.92203125 -5.6875 1.25 C-4.05737162 -0.38012838 -2.24312555 0.04023544 0 0 Z " fill="#000000" transform="translate(37.6875,3.75)"/>
<path d="M0 0 C7.26 0 14.52 0 22 0 C22 1.32 22 2.64 22 4 C14.74 4 7.48 4 0 4 C0 2.68 0 1.36 0 0 Z " fill="#000000" transform="translate(39,23)"/>
</svg>
